<mxfile host="app.diagrams.net" modified="2024-04-23T07:34:26.514Z" agent="Mozilla/5.0 (Windows NT 10.0; Win64; x64) AppleWebKit/537.36 (KHTML, like Gecko) Chrome/123.0.0.0 Safari/537.36" etag="ve1HJlI74gF9UkKy-iv-" version="24.2.8" type="github">
  <diagram name="Page-1" id="93qsqoa9q8cj8dvDCaKV">
    <mxGraphModel dx="3078" dy="1100" grid="1" gridSize="10" guides="1" tooltips="1" connect="1" arrows="1" fold="1" page="1" pageScale="1" pageWidth="850" pageHeight="1100" math="0" shadow="0">
      <root>
        <mxCell id="0" />
        <mxCell id="1" parent="0" />
        <mxCell id="fLA8LU66fRKPIO0S5Qcv-1" value="`biteship_orders`" style="shape=table;startSize=30;container=1;collapsible=1;childLayout=tableLayout;fixedRows=1;rowLines=0;fontStyle=1;align=center;resizeLast=1;fontSize=18;" vertex="1" parent="1">
          <mxGeometry x="-530" y="530" width="490" height="420" as="geometry" />
        </mxCell>
        <mxCell id="fLA8LU66fRKPIO0S5Qcv-2" value="" style="shape=tableRow;horizontal=0;startSize=0;swimlaneHead=0;swimlaneBody=0;fillColor=none;collapsible=0;dropTarget=0;points=[[0,0.5],[1,0.5]];portConstraint=eastwest;strokeColor=inherit;top=0;left=0;right=0;bottom=1;fontSize=18;" vertex="1" parent="fLA8LU66fRKPIO0S5Qcv-1">
          <mxGeometry y="30" width="490" height="30" as="geometry" />
        </mxCell>
        <mxCell id="fLA8LU66fRKPIO0S5Qcv-3" value="PK" style="shape=partialRectangle;overflow=hidden;connectable=0;fillColor=none;strokeColor=inherit;top=0;left=0;bottom=0;right=0;fontStyle=1;fontSize=18;" vertex="1" parent="fLA8LU66fRKPIO0S5Qcv-2">
          <mxGeometry width="30" height="30" as="geometry">
            <mxRectangle width="30" height="30" as="alternateBounds" />
          </mxGeometry>
        </mxCell>
        <mxCell id="fLA8LU66fRKPIO0S5Qcv-4" value="`id` varchar(191) NOT NULL" style="shape=partialRectangle;overflow=hidden;connectable=0;fillColor=none;align=left;strokeColor=inherit;top=0;left=0;bottom=0;right=0;spacingLeft=6;fontStyle=5;fontSize=18;" vertex="1" parent="fLA8LU66fRKPIO0S5Qcv-2">
          <mxGeometry x="30" width="460" height="30" as="geometry">
            <mxRectangle width="460" height="30" as="alternateBounds" />
          </mxGeometry>
        </mxCell>
        <mxCell id="fLA8LU66fRKPIO0S5Qcv-5" value="" style="shape=tableRow;horizontal=0;startSize=0;swimlaneHead=0;swimlaneBody=0;fillColor=none;collapsible=0;dropTarget=0;points=[[0,0.5],[1,0.5]];portConstraint=eastwest;strokeColor=inherit;top=0;left=0;right=0;bottom=0;fontSize=18;" vertex="1" parent="fLA8LU66fRKPIO0S5Qcv-1">
          <mxGeometry y="60" width="490" height="30" as="geometry" />
        </mxCell>
        <mxCell id="fLA8LU66fRKPIO0S5Qcv-6" value="" style="shape=partialRectangle;overflow=hidden;connectable=0;fillColor=none;strokeColor=inherit;top=0;left=0;bottom=0;right=0;fontSize=18;" vertex="1" parent="fLA8LU66fRKPIO0S5Qcv-5">
          <mxGeometry width="30" height="30" as="geometry">
            <mxRectangle width="30" height="30" as="alternateBounds" />
          </mxGeometry>
        </mxCell>
        <mxCell id="fLA8LU66fRKPIO0S5Qcv-7" value="`origin_postal_code` varchar(191) NOT NULL" style="shape=partialRectangle;overflow=hidden;connectable=0;fillColor=none;align=left;strokeColor=inherit;top=0;left=0;bottom=0;right=0;spacingLeft=6;fontSize=18;" vertex="1" parent="fLA8LU66fRKPIO0S5Qcv-5">
          <mxGeometry x="30" width="460" height="30" as="geometry">
            <mxRectangle width="460" height="30" as="alternateBounds" />
          </mxGeometry>
        </mxCell>
        <mxCell id="fLA8LU66fRKPIO0S5Qcv-8" value="" style="shape=tableRow;horizontal=0;startSize=0;swimlaneHead=0;swimlaneBody=0;fillColor=none;collapsible=0;dropTarget=0;points=[[0,0.5],[1,0.5]];portConstraint=eastwest;strokeColor=inherit;top=0;left=0;right=0;bottom=0;fontSize=18;" vertex="1" parent="fLA8LU66fRKPIO0S5Qcv-1">
          <mxGeometry y="90" width="490" height="30" as="geometry" />
        </mxCell>
        <mxCell id="fLA8LU66fRKPIO0S5Qcv-9" value="" style="shape=partialRectangle;overflow=hidden;connectable=0;fillColor=none;strokeColor=inherit;top=0;left=0;bottom=0;right=0;fontSize=18;" vertex="1" parent="fLA8LU66fRKPIO0S5Qcv-8">
          <mxGeometry width="30" height="30" as="geometry">
            <mxRectangle width="30" height="30" as="alternateBounds" />
          </mxGeometry>
        </mxCell>
        <mxCell id="fLA8LU66fRKPIO0S5Qcv-10" value="`destination_postal_code` varchar(191) NOT NULL" style="shape=partialRectangle;overflow=hidden;connectable=0;fillColor=none;align=left;strokeColor=inherit;top=0;left=0;bottom=0;right=0;spacingLeft=6;fontSize=18;" vertex="1" parent="fLA8LU66fRKPIO0S5Qcv-8">
          <mxGeometry x="30" width="460" height="30" as="geometry">
            <mxRectangle width="460" height="30" as="alternateBounds" />
          </mxGeometry>
        </mxCell>
        <mxCell id="fLA8LU66fRKPIO0S5Qcv-11" value="" style="shape=tableRow;horizontal=0;startSize=0;swimlaneHead=0;swimlaneBody=0;fillColor=none;collapsible=0;dropTarget=0;points=[[0,0.5],[1,0.5]];portConstraint=eastwest;strokeColor=inherit;top=0;left=0;right=0;bottom=0;fontSize=18;" vertex="1" parent="fLA8LU66fRKPIO0S5Qcv-1">
          <mxGeometry y="120" width="490" height="30" as="geometry" />
        </mxCell>
        <mxCell id="fLA8LU66fRKPIO0S5Qcv-12" value="" style="shape=partialRectangle;overflow=hidden;connectable=0;fillColor=none;strokeColor=inherit;top=0;left=0;bottom=0;right=0;fontSize=18;" vertex="1" parent="fLA8LU66fRKPIO0S5Qcv-11">
          <mxGeometry width="30" height="30" as="geometry">
            <mxRectangle width="30" height="30" as="alternateBounds" />
          </mxGeometry>
        </mxCell>
        <mxCell id="fLA8LU66fRKPIO0S5Qcv-13" value="`delivery_time` datetime NOT NULL" style="shape=partialRectangle;overflow=hidden;connectable=0;fillColor=none;align=left;strokeColor=inherit;top=0;left=0;bottom=0;right=0;spacingLeft=6;fontSize=18;" vertex="1" parent="fLA8LU66fRKPIO0S5Qcv-11">
          <mxGeometry x="30" width="460" height="30" as="geometry">
            <mxRectangle width="460" height="30" as="alternateBounds" />
          </mxGeometry>
        </mxCell>
        <mxCell id="fLA8LU66fRKPIO0S5Qcv-14" value="" style="shape=tableRow;horizontal=0;startSize=0;swimlaneHead=0;swimlaneBody=0;fillColor=none;collapsible=0;dropTarget=0;points=[[0,0.5],[1,0.5]];portConstraint=eastwest;strokeColor=inherit;top=0;left=0;right=0;bottom=0;fontSize=18;" vertex="1" parent="fLA8LU66fRKPIO0S5Qcv-1">
          <mxGeometry y="150" width="490" height="30" as="geometry" />
        </mxCell>
        <mxCell id="fLA8LU66fRKPIO0S5Qcv-15" value="" style="shape=partialRectangle;overflow=hidden;connectable=0;fillColor=none;strokeColor=inherit;top=0;left=0;bottom=0;right=0;fontSize=18;" vertex="1" parent="fLA8LU66fRKPIO0S5Qcv-14">
          <mxGeometry width="30" height="30" as="geometry">
            <mxRectangle width="30" height="30" as="alternateBounds" />
          </mxGeometry>
        </mxCell>
        <mxCell id="fLA8LU66fRKPIO0S5Qcv-16" value="`delivery_note` varchar(191) DEFAULT NULL" style="shape=partialRectangle;overflow=hidden;connectable=0;fillColor=none;align=left;strokeColor=inherit;top=0;left=0;bottom=0;right=0;spacingLeft=6;fontSize=18;" vertex="1" parent="fLA8LU66fRKPIO0S5Qcv-14">
          <mxGeometry x="30" width="460" height="30" as="geometry">
            <mxRectangle width="460" height="30" as="alternateBounds" />
          </mxGeometry>
        </mxCell>
        <mxCell id="fLA8LU66fRKPIO0S5Qcv-17" value="" style="shape=tableRow;horizontal=0;startSize=0;swimlaneHead=0;swimlaneBody=0;fillColor=none;collapsible=0;dropTarget=0;points=[[0,0.5],[1,0.5]];portConstraint=eastwest;strokeColor=inherit;top=0;left=0;right=0;bottom=0;fontSize=18;" vertex="1" parent="fLA8LU66fRKPIO0S5Qcv-1">
          <mxGeometry y="180" width="490" height="30" as="geometry" />
        </mxCell>
        <mxCell id="fLA8LU66fRKPIO0S5Qcv-18" value="" style="shape=partialRectangle;overflow=hidden;connectable=0;fillColor=none;strokeColor=inherit;top=0;left=0;bottom=0;right=0;fontSize=18;" vertex="1" parent="fLA8LU66fRKPIO0S5Qcv-17">
          <mxGeometry width="30" height="30" as="geometry">
            <mxRectangle width="30" height="30" as="alternateBounds" />
          </mxGeometry>
        </mxCell>
        <mxCell id="fLA8LU66fRKPIO0S5Qcv-19" value="`delivery_type` varchar(191) NOT NULL" style="shape=partialRectangle;overflow=hidden;connectable=0;fillColor=none;align=left;strokeColor=inherit;top=0;left=0;bottom=0;right=0;spacingLeft=6;fontSize=18;" vertex="1" parent="fLA8LU66fRKPIO0S5Qcv-17">
          <mxGeometry x="30" width="460" height="30" as="geometry">
            <mxRectangle width="460" height="30" as="alternateBounds" />
          </mxGeometry>
        </mxCell>
        <mxCell id="fLA8LU66fRKPIO0S5Qcv-20" value="" style="shape=tableRow;horizontal=0;startSize=0;swimlaneHead=0;swimlaneBody=0;fillColor=none;collapsible=0;dropTarget=0;points=[[0,0.5],[1,0.5]];portConstraint=eastwest;strokeColor=inherit;top=0;left=0;right=0;bottom=0;fontSize=18;" vertex="1" parent="fLA8LU66fRKPIO0S5Qcv-1">
          <mxGeometry y="210" width="490" height="30" as="geometry" />
        </mxCell>
        <mxCell id="fLA8LU66fRKPIO0S5Qcv-21" value="" style="shape=partialRectangle;overflow=hidden;connectable=0;fillColor=none;strokeColor=inherit;top=0;left=0;bottom=0;right=0;fontSize=18;" vertex="1" parent="fLA8LU66fRKPIO0S5Qcv-20">
          <mxGeometry width="30" height="30" as="geometry">
            <mxRectangle width="30" height="30" as="alternateBounds" />
          </mxGeometry>
        </mxCell>
        <mxCell id="fLA8LU66fRKPIO0S5Qcv-22" value="`cash_on_delivery_fee` int(11) NOT NULL DEFAULT 0" style="shape=partialRectangle;overflow=hidden;connectable=0;fillColor=none;align=left;strokeColor=inherit;top=0;left=0;bottom=0;right=0;spacingLeft=6;fontSize=18;" vertex="1" parent="fLA8LU66fRKPIO0S5Qcv-20">
          <mxGeometry x="30" width="460" height="30" as="geometry">
            <mxRectangle width="460" height="30" as="alternateBounds" />
          </mxGeometry>
        </mxCell>
        <mxCell id="fLA8LU66fRKPIO0S5Qcv-23" value="" style="shape=tableRow;horizontal=0;startSize=0;swimlaneHead=0;swimlaneBody=0;fillColor=none;collapsible=0;dropTarget=0;points=[[0,0.5],[1,0.5]];portConstraint=eastwest;strokeColor=inherit;top=0;left=0;right=0;bottom=0;fontSize=18;" vertex="1" parent="fLA8LU66fRKPIO0S5Qcv-1">
          <mxGeometry y="240" width="490" height="30" as="geometry" />
        </mxCell>
        <mxCell id="fLA8LU66fRKPIO0S5Qcv-24" value="" style="shape=partialRectangle;overflow=hidden;connectable=0;fillColor=none;strokeColor=inherit;top=0;left=0;bottom=0;right=0;fontSize=18;" vertex="1" parent="fLA8LU66fRKPIO0S5Qcv-23">
          <mxGeometry width="30" height="30" as="geometry">
            <mxRectangle width="30" height="30" as="alternateBounds" />
          </mxGeometry>
        </mxCell>
        <mxCell id="fLA8LU66fRKPIO0S5Qcv-25" value="`price` int(11) NOT NULL" style="shape=partialRectangle;overflow=hidden;connectable=0;fillColor=none;align=left;strokeColor=inherit;top=0;left=0;bottom=0;right=0;spacingLeft=6;fontSize=18;" vertex="1" parent="fLA8LU66fRKPIO0S5Qcv-23">
          <mxGeometry x="30" width="460" height="30" as="geometry">
            <mxRectangle width="460" height="30" as="alternateBounds" />
          </mxGeometry>
        </mxCell>
        <mxCell id="fLA8LU66fRKPIO0S5Qcv-26" value="" style="shape=tableRow;horizontal=0;startSize=0;swimlaneHead=0;swimlaneBody=0;fillColor=none;collapsible=0;dropTarget=0;points=[[0,0.5],[1,0.5]];portConstraint=eastwest;strokeColor=inherit;top=0;left=0;right=0;bottom=0;fontSize=18;" vertex="1" parent="fLA8LU66fRKPIO0S5Qcv-1">
          <mxGeometry y="270" width="490" height="30" as="geometry" />
        </mxCell>
        <mxCell id="fLA8LU66fRKPIO0S5Qcv-27" value="" style="shape=partialRectangle;overflow=hidden;connectable=0;fillColor=none;strokeColor=inherit;top=0;left=0;bottom=0;right=0;fontSize=18;" vertex="1" parent="fLA8LU66fRKPIO0S5Qcv-26">
          <mxGeometry width="30" height="30" as="geometry">
            <mxRectangle width="30" height="30" as="alternateBounds" />
          </mxGeometry>
        </mxCell>
        <mxCell id="fLA8LU66fRKPIO0S5Qcv-28" value="`proof_of_delivery_fee` int(11) NOT NULL DEFAULT 0" style="shape=partialRectangle;overflow=hidden;connectable=0;fillColor=none;align=left;strokeColor=inherit;top=0;left=0;bottom=0;right=0;spacingLeft=6;fontSize=18;" vertex="1" parent="fLA8LU66fRKPIO0S5Qcv-26">
          <mxGeometry x="30" width="460" height="30" as="geometry">
            <mxRectangle width="460" height="30" as="alternateBounds" />
          </mxGeometry>
        </mxCell>
        <mxCell id="fLA8LU66fRKPIO0S5Qcv-29" value="" style="shape=tableRow;horizontal=0;startSize=0;swimlaneHead=0;swimlaneBody=0;fillColor=none;collapsible=0;dropTarget=0;points=[[0,0.5],[1,0.5]];portConstraint=eastwest;strokeColor=inherit;top=0;left=0;right=0;bottom=0;fontSize=18;" vertex="1" parent="fLA8LU66fRKPIO0S5Qcv-1">
          <mxGeometry y="300" width="490" height="30" as="geometry" />
        </mxCell>
        <mxCell id="fLA8LU66fRKPIO0S5Qcv-30" value="" style="shape=partialRectangle;overflow=hidden;connectable=0;fillColor=none;strokeColor=inherit;top=0;left=0;bottom=0;right=0;fontSize=18;" vertex="1" parent="fLA8LU66fRKPIO0S5Qcv-29">
          <mxGeometry width="30" height="30" as="geometry">
            <mxRectangle width="30" height="30" as="alternateBounds" />
          </mxGeometry>
        </mxCell>
        <mxCell id="fLA8LU66fRKPIO0S5Qcv-31" value="`shippment_fee` int(11) NOT NULL DEFAULT 0" style="shape=partialRectangle;overflow=hidden;connectable=0;fillColor=none;align=left;strokeColor=inherit;top=0;left=0;bottom=0;right=0;spacingLeft=6;fontSize=18;" vertex="1" parent="fLA8LU66fRKPIO0S5Qcv-29">
          <mxGeometry x="30" width="460" height="30" as="geometry">
            <mxRectangle width="460" height="30" as="alternateBounds" />
          </mxGeometry>
        </mxCell>
        <mxCell id="fLA8LU66fRKPIO0S5Qcv-32" value="" style="shape=tableRow;horizontal=0;startSize=0;swimlaneHead=0;swimlaneBody=0;fillColor=none;collapsible=0;dropTarget=0;points=[[0,0.5],[1,0.5]];portConstraint=eastwest;strokeColor=inherit;top=0;left=0;right=0;bottom=0;fontSize=18;" vertex="1" parent="fLA8LU66fRKPIO0S5Qcv-1">
          <mxGeometry y="330" width="490" height="30" as="geometry" />
        </mxCell>
        <mxCell id="fLA8LU66fRKPIO0S5Qcv-33" value="" style="shape=partialRectangle;overflow=hidden;connectable=0;fillColor=none;strokeColor=inherit;top=0;left=0;bottom=0;right=0;fontSize=18;" vertex="1" parent="fLA8LU66fRKPIO0S5Qcv-32">
          <mxGeometry width="30" height="30" as="geometry">
            <mxRectangle width="30" height="30" as="alternateBounds" />
          </mxGeometry>
        </mxCell>
        <mxCell id="fLA8LU66fRKPIO0S5Qcv-34" value="`status` varchar(191) NOT NULL" style="shape=partialRectangle;overflow=hidden;connectable=0;fillColor=none;align=left;strokeColor=inherit;top=0;left=0;bottom=0;right=0;spacingLeft=6;fontSize=18;" vertex="1" parent="fLA8LU66fRKPIO0S5Qcv-32">
          <mxGeometry x="30" width="460" height="30" as="geometry">
            <mxRectangle width="460" height="30" as="alternateBounds" />
          </mxGeometry>
        </mxCell>
        <mxCell id="fLA8LU66fRKPIO0S5Qcv-35" value="" style="shape=tableRow;horizontal=0;startSize=0;swimlaneHead=0;swimlaneBody=0;fillColor=none;collapsible=0;dropTarget=0;points=[[0,0.5],[1,0.5]];portConstraint=eastwest;strokeColor=inherit;top=0;left=0;right=0;bottom=0;fontSize=18;" vertex="1" parent="fLA8LU66fRKPIO0S5Qcv-1">
          <mxGeometry y="360" width="490" height="30" as="geometry" />
        </mxCell>
        <mxCell id="fLA8LU66fRKPIO0S5Qcv-36" value="" style="shape=partialRectangle;overflow=hidden;connectable=0;fillColor=none;strokeColor=inherit;top=0;left=0;bottom=0;right=0;fontSize=18;" vertex="1" parent="fLA8LU66fRKPIO0S5Qcv-35">
          <mxGeometry width="30" height="30" as="geometry">
            <mxRectangle width="30" height="30" as="alternateBounds" />
          </mxGeometry>
        </mxCell>
        <mxCell id="fLA8LU66fRKPIO0S5Qcv-37" value="`created_at` timestamp NULL DEFAULT NULL" style="shape=partialRectangle;overflow=hidden;connectable=0;fillColor=none;align=left;strokeColor=inherit;top=0;left=0;bottom=0;right=0;spacingLeft=6;fontSize=18;" vertex="1" parent="fLA8LU66fRKPIO0S5Qcv-35">
          <mxGeometry x="30" width="460" height="30" as="geometry">
            <mxRectangle width="460" height="30" as="alternateBounds" />
          </mxGeometry>
        </mxCell>
        <mxCell id="fLA8LU66fRKPIO0S5Qcv-38" value="" style="shape=tableRow;horizontal=0;startSize=0;swimlaneHead=0;swimlaneBody=0;fillColor=none;collapsible=0;dropTarget=0;points=[[0,0.5],[1,0.5]];portConstraint=eastwest;strokeColor=inherit;top=0;left=0;right=0;bottom=0;fontSize=18;" vertex="1" parent="fLA8LU66fRKPIO0S5Qcv-1">
          <mxGeometry y="390" width="490" height="30" as="geometry" />
        </mxCell>
        <mxCell id="fLA8LU66fRKPIO0S5Qcv-39" value="" style="shape=partialRectangle;overflow=hidden;connectable=0;fillColor=none;strokeColor=inherit;top=0;left=0;bottom=0;right=0;fontSize=18;" vertex="1" parent="fLA8LU66fRKPIO0S5Qcv-38">
          <mxGeometry width="30" height="30" as="geometry">
            <mxRectangle width="30" height="30" as="alternateBounds" />
          </mxGeometry>
        </mxCell>
        <mxCell id="fLA8LU66fRKPIO0S5Qcv-40" value="`updated_at` timestamp NULL DEFAULT NULL" style="shape=partialRectangle;overflow=hidden;connectable=0;fillColor=none;align=left;strokeColor=inherit;top=0;left=0;bottom=0;right=0;spacingLeft=6;fontSize=18;" vertex="1" parent="fLA8LU66fRKPIO0S5Qcv-38">
          <mxGeometry x="30" width="460" height="30" as="geometry">
            <mxRectangle width="460" height="30" as="alternateBounds" />
          </mxGeometry>
        </mxCell>
        <mxCell id="fLA8LU66fRKPIO0S5Qcv-41" value="`companies`" style="shape=table;startSize=30;container=1;collapsible=1;childLayout=tableLayout;fixedRows=1;rowLines=0;fontStyle=1;align=center;resizeLast=1;fontSize=18;" vertex="1" parent="1">
          <mxGeometry x="30" y="60" width="320" height="240" as="geometry" />
        </mxCell>
        <mxCell id="fLA8LU66fRKPIO0S5Qcv-42" value="" style="shape=tableRow;horizontal=0;startSize=0;swimlaneHead=0;swimlaneBody=0;fillColor=none;collapsible=0;dropTarget=0;points=[[0,0.5],[1,0.5]];portConstraint=eastwest;strokeColor=inherit;top=0;left=0;right=0;bottom=1;fontSize=18;" vertex="1" parent="fLA8LU66fRKPIO0S5Qcv-41">
          <mxGeometry y="30" width="320" height="30" as="geometry" />
        </mxCell>
        <mxCell id="fLA8LU66fRKPIO0S5Qcv-43" value="PK" style="shape=partialRectangle;overflow=hidden;connectable=0;fillColor=none;strokeColor=inherit;top=0;left=0;bottom=0;right=0;fontStyle=1;fontSize=18;" vertex="1" parent="fLA8LU66fRKPIO0S5Qcv-42">
          <mxGeometry width="30" height="30" as="geometry">
            <mxRectangle width="30" height="30" as="alternateBounds" />
          </mxGeometry>
        </mxCell>
        <mxCell id="fLA8LU66fRKPIO0S5Qcv-44" value="`id` bigint(20) unsigned NOT NULL AUTO_INCREMENT" style="shape=partialRectangle;overflow=hidden;connectable=0;fillColor=none;align=left;strokeColor=inherit;top=0;left=0;bottom=0;right=0;spacingLeft=6;fontStyle=5;fontSize=18;" vertex="1" parent="fLA8LU66fRKPIO0S5Qcv-42">
          <mxGeometry x="30" width="290" height="30" as="geometry">
            <mxRectangle width="290" height="30" as="alternateBounds" />
          </mxGeometry>
        </mxCell>
        <mxCell id="fLA8LU66fRKPIO0S5Qcv-45" value="" style="shape=tableRow;horizontal=0;startSize=0;swimlaneHead=0;swimlaneBody=0;fillColor=none;collapsible=0;dropTarget=0;points=[[0,0.5],[1,0.5]];portConstraint=eastwest;strokeColor=inherit;top=0;left=0;right=0;bottom=0;fontSize=18;" vertex="1" parent="fLA8LU66fRKPIO0S5Qcv-41">
          <mxGeometry y="60" width="320" height="30" as="geometry" />
        </mxCell>
        <mxCell id="fLA8LU66fRKPIO0S5Qcv-46" value="" style="shape=partialRectangle;overflow=hidden;connectable=0;fillColor=none;strokeColor=inherit;top=0;left=0;bottom=0;right=0;fontSize=18;" vertex="1" parent="fLA8LU66fRKPIO0S5Qcv-45">
          <mxGeometry width="30" height="30" as="geometry">
            <mxRectangle width="30" height="30" as="alternateBounds" />
          </mxGeometry>
        </mxCell>
        <mxCell id="fLA8LU66fRKPIO0S5Qcv-47" value="`name` varchar(191) NOT NULL" style="shape=partialRectangle;overflow=hidden;connectable=0;fillColor=none;align=left;strokeColor=inherit;top=0;left=0;bottom=0;right=0;spacingLeft=6;fontSize=18;" vertex="1" parent="fLA8LU66fRKPIO0S5Qcv-45">
          <mxGeometry x="30" width="290" height="30" as="geometry">
            <mxRectangle width="290" height="30" as="alternateBounds" />
          </mxGeometry>
        </mxCell>
        <mxCell id="fLA8LU66fRKPIO0S5Qcv-48" value="" style="shape=tableRow;horizontal=0;startSize=0;swimlaneHead=0;swimlaneBody=0;fillColor=none;collapsible=0;dropTarget=0;points=[[0,0.5],[1,0.5]];portConstraint=eastwest;strokeColor=inherit;top=0;left=0;right=0;bottom=0;fontSize=18;" vertex="1" parent="fLA8LU66fRKPIO0S5Qcv-41">
          <mxGeometry y="90" width="320" height="30" as="geometry" />
        </mxCell>
        <mxCell id="fLA8LU66fRKPIO0S5Qcv-49" value="" style="shape=partialRectangle;overflow=hidden;connectable=0;fillColor=none;strokeColor=inherit;top=0;left=0;bottom=0;right=0;fontSize=18;" vertex="1" parent="fLA8LU66fRKPIO0S5Qcv-48">
          <mxGeometry width="30" height="30" as="geometry">
            <mxRectangle width="30" height="30" as="alternateBounds" />
          </mxGeometry>
        </mxCell>
        <mxCell id="fLA8LU66fRKPIO0S5Qcv-50" value="`email` varchar(191) NOT NULL" style="shape=partialRectangle;overflow=hidden;connectable=0;fillColor=none;align=left;strokeColor=inherit;top=0;left=0;bottom=0;right=0;spacingLeft=6;fontSize=18;" vertex="1" parent="fLA8LU66fRKPIO0S5Qcv-48">
          <mxGeometry x="30" width="290" height="30" as="geometry">
            <mxRectangle width="290" height="30" as="alternateBounds" />
          </mxGeometry>
        </mxCell>
        <mxCell id="fLA8LU66fRKPIO0S5Qcv-51" value="" style="shape=tableRow;horizontal=0;startSize=0;swimlaneHead=0;swimlaneBody=0;fillColor=none;collapsible=0;dropTarget=0;points=[[0,0.5],[1,0.5]];portConstraint=eastwest;strokeColor=inherit;top=0;left=0;right=0;bottom=0;fontSize=18;" vertex="1" parent="fLA8LU66fRKPIO0S5Qcv-41">
          <mxGeometry y="120" width="320" height="30" as="geometry" />
        </mxCell>
        <mxCell id="fLA8LU66fRKPIO0S5Qcv-52" value="" style="shape=partialRectangle;overflow=hidden;connectable=0;fillColor=none;strokeColor=inherit;top=0;left=0;bottom=0;right=0;fontSize=18;" vertex="1" parent="fLA8LU66fRKPIO0S5Qcv-51">
          <mxGeometry width="30" height="30" as="geometry">
            <mxRectangle width="30" height="30" as="alternateBounds" />
          </mxGeometry>
        </mxCell>
        <mxCell id="fLA8LU66fRKPIO0S5Qcv-53" value="`phone` varchar(100) NOT NULL" style="shape=partialRectangle;overflow=hidden;connectable=0;fillColor=none;align=left;strokeColor=inherit;top=0;left=0;bottom=0;right=0;spacingLeft=6;fontSize=18;" vertex="1" parent="fLA8LU66fRKPIO0S5Qcv-51">
          <mxGeometry x="30" width="290" height="30" as="geometry">
            <mxRectangle width="290" height="30" as="alternateBounds" />
          </mxGeometry>
        </mxCell>
        <mxCell id="fLA8LU66fRKPIO0S5Qcv-54" value="" style="shape=tableRow;horizontal=0;startSize=0;swimlaneHead=0;swimlaneBody=0;fillColor=none;collapsible=0;dropTarget=0;points=[[0,0.5],[1,0.5]];portConstraint=eastwest;strokeColor=inherit;top=0;left=0;right=0;bottom=0;fontSize=18;" vertex="1" parent="fLA8LU66fRKPIO0S5Qcv-41">
          <mxGeometry y="150" width="320" height="30" as="geometry" />
        </mxCell>
        <mxCell id="fLA8LU66fRKPIO0S5Qcv-55" value="" style="shape=partialRectangle;overflow=hidden;connectable=0;fillColor=none;strokeColor=inherit;top=0;left=0;bottom=0;right=0;fontSize=18;" vertex="1" parent="fLA8LU66fRKPIO0S5Qcv-54">
          <mxGeometry width="30" height="30" as="geometry">
            <mxRectangle width="30" height="30" as="alternateBounds" />
          </mxGeometry>
        </mxCell>
        <mxCell id="fLA8LU66fRKPIO0S5Qcv-56" value="`deleted_at` timestamp NULL DEFAULT NULL" style="shape=partialRectangle;overflow=hidden;connectable=0;fillColor=none;align=left;strokeColor=inherit;top=0;left=0;bottom=0;right=0;spacingLeft=6;fontSize=18;" vertex="1" parent="fLA8LU66fRKPIO0S5Qcv-54">
          <mxGeometry x="30" width="290" height="30" as="geometry">
            <mxRectangle width="290" height="30" as="alternateBounds" />
          </mxGeometry>
        </mxCell>
        <mxCell id="fLA8LU66fRKPIO0S5Qcv-57" value="" style="shape=tableRow;horizontal=0;startSize=0;swimlaneHead=0;swimlaneBody=0;fillColor=none;collapsible=0;dropTarget=0;points=[[0,0.5],[1,0.5]];portConstraint=eastwest;strokeColor=inherit;top=0;left=0;right=0;bottom=0;fontSize=18;" vertex="1" parent="fLA8LU66fRKPIO0S5Qcv-41">
          <mxGeometry y="180" width="320" height="30" as="geometry" />
        </mxCell>
        <mxCell id="fLA8LU66fRKPIO0S5Qcv-58" value="" style="shape=partialRectangle;overflow=hidden;connectable=0;fillColor=none;strokeColor=inherit;top=0;left=0;bottom=0;right=0;fontSize=18;" vertex="1" parent="fLA8LU66fRKPIO0S5Qcv-57">
          <mxGeometry width="30" height="30" as="geometry">
            <mxRectangle width="30" height="30" as="alternateBounds" />
          </mxGeometry>
        </mxCell>
        <mxCell id="fLA8LU66fRKPIO0S5Qcv-59" value="`created_at` timestamp NULL DEFAULT NULL" style="shape=partialRectangle;overflow=hidden;connectable=0;fillColor=none;align=left;strokeColor=inherit;top=0;left=0;bottom=0;right=0;spacingLeft=6;fontSize=18;" vertex="1" parent="fLA8LU66fRKPIO0S5Qcv-57">
          <mxGeometry x="30" width="290" height="30" as="geometry">
            <mxRectangle width="290" height="30" as="alternateBounds" />
          </mxGeometry>
        </mxCell>
        <mxCell id="fLA8LU66fRKPIO0S5Qcv-60" value="" style="shape=tableRow;horizontal=0;startSize=0;swimlaneHead=0;swimlaneBody=0;fillColor=none;collapsible=0;dropTarget=0;points=[[0,0.5],[1,0.5]];portConstraint=eastwest;strokeColor=inherit;top=0;left=0;right=0;bottom=0;fontSize=18;" vertex="1" parent="fLA8LU66fRKPIO0S5Qcv-41">
          <mxGeometry y="210" width="320" height="30" as="geometry" />
        </mxCell>
        <mxCell id="fLA8LU66fRKPIO0S5Qcv-61" value="" style="shape=partialRectangle;overflow=hidden;connectable=0;fillColor=none;strokeColor=inherit;top=0;left=0;bottom=0;right=0;fontSize=18;" vertex="1" parent="fLA8LU66fRKPIO0S5Qcv-60">
          <mxGeometry width="30" height="30" as="geometry">
            <mxRectangle width="30" height="30" as="alternateBounds" />
          </mxGeometry>
        </mxCell>
        <mxCell id="fLA8LU66fRKPIO0S5Qcv-62" value="`updated_at` timestamp NULL DEFAULT NULL" style="shape=partialRectangle;overflow=hidden;connectable=0;fillColor=none;align=left;strokeColor=inherit;top=0;left=0;bottom=0;right=0;spacingLeft=6;fontSize=18;" vertex="1" parent="fLA8LU66fRKPIO0S5Qcv-60">
          <mxGeometry x="30" width="290" height="30" as="geometry">
            <mxRectangle width="290" height="30" as="alternateBounds" />
          </mxGeometry>
        </mxCell>
        <mxCell id="fLA8LU66fRKPIO0S5Qcv-63" value="`sales_summaries`" style="shape=table;startSize=30;container=1;collapsible=1;childLayout=tableLayout;fixedRows=1;rowLines=0;fontStyle=1;align=center;resizeLast=1;fontSize=18;" vertex="1" parent="1">
          <mxGeometry x="250" y="530" width="520" height="300" as="geometry" />
        </mxCell>
        <mxCell id="fLA8LU66fRKPIO0S5Qcv-64" value="" style="shape=tableRow;horizontal=0;startSize=0;swimlaneHead=0;swimlaneBody=0;fillColor=none;collapsible=0;dropTarget=0;points=[[0,0.5],[1,0.5]];portConstraint=eastwest;strokeColor=inherit;top=0;left=0;right=0;bottom=1;fontSize=18;" vertex="1" parent="fLA8LU66fRKPIO0S5Qcv-63">
          <mxGeometry y="30" width="520" height="30" as="geometry" />
        </mxCell>
        <mxCell id="fLA8LU66fRKPIO0S5Qcv-65" value="PK" style="shape=partialRectangle;overflow=hidden;connectable=0;fillColor=none;strokeColor=inherit;top=0;left=0;bottom=0;right=0;fontStyle=1;fontSize=18;" vertex="1" parent="fLA8LU66fRKPIO0S5Qcv-64">
          <mxGeometry width="30" height="30" as="geometry">
            <mxRectangle width="30" height="30" as="alternateBounds" />
          </mxGeometry>
        </mxCell>
        <mxCell id="fLA8LU66fRKPIO0S5Qcv-66" value="`id` bigint(20) unsigned NOT NULL AUTO_INCREMENT" style="shape=partialRectangle;overflow=hidden;connectable=0;fillColor=none;align=left;strokeColor=inherit;top=0;left=0;bottom=0;right=0;spacingLeft=6;fontStyle=5;fontSize=18;" vertex="1" parent="fLA8LU66fRKPIO0S5Qcv-64">
          <mxGeometry x="30" width="490" height="30" as="geometry">
            <mxRectangle width="490" height="30" as="alternateBounds" />
          </mxGeometry>
        </mxCell>
        <mxCell id="fLA8LU66fRKPIO0S5Qcv-67" value="" style="shape=tableRow;horizontal=0;startSize=0;swimlaneHead=0;swimlaneBody=0;fillColor=none;collapsible=0;dropTarget=0;points=[[0,0.5],[1,0.5]];portConstraint=eastwest;strokeColor=inherit;top=0;left=0;right=0;bottom=0;fontSize=18;" vertex="1" parent="fLA8LU66fRKPIO0S5Qcv-63">
          <mxGeometry y="60" width="520" height="30" as="geometry" />
        </mxCell>
        <mxCell id="fLA8LU66fRKPIO0S5Qcv-68" value="" style="shape=partialRectangle;overflow=hidden;connectable=0;fillColor=none;strokeColor=inherit;top=0;left=0;bottom=0;right=0;fontSize=18;" vertex="1" parent="fLA8LU66fRKPIO0S5Qcv-67">
          <mxGeometry width="30" height="30" as="geometry">
            <mxRectangle width="30" height="30" as="alternateBounds" />
          </mxGeometry>
        </mxCell>
        <mxCell id="fLA8LU66fRKPIO0S5Qcv-69" value="`company_id` bigint(20) unsigned NOT NULL" style="shape=partialRectangle;overflow=hidden;connectable=0;fillColor=none;align=left;strokeColor=inherit;top=0;left=0;bottom=0;right=0;spacingLeft=6;fontSize=18;" vertex="1" parent="fLA8LU66fRKPIO0S5Qcv-67">
          <mxGeometry x="30" width="490" height="30" as="geometry">
            <mxRectangle width="490" height="30" as="alternateBounds" />
          </mxGeometry>
        </mxCell>
        <mxCell id="fLA8LU66fRKPIO0S5Qcv-70" value="" style="shape=tableRow;horizontal=0;startSize=0;swimlaneHead=0;swimlaneBody=0;fillColor=none;collapsible=0;dropTarget=0;points=[[0,0.5],[1,0.5]];portConstraint=eastwest;strokeColor=inherit;top=0;left=0;right=0;bottom=0;fontSize=18;" vertex="1" parent="fLA8LU66fRKPIO0S5Qcv-63">
          <mxGeometry y="90" width="520" height="30" as="geometry" />
        </mxCell>
        <mxCell id="fLA8LU66fRKPIO0S5Qcv-71" value="" style="shape=partialRectangle;overflow=hidden;connectable=0;fillColor=none;strokeColor=inherit;top=0;left=0;bottom=0;right=0;fontSize=18;" vertex="1" parent="fLA8LU66fRKPIO0S5Qcv-70">
          <mxGeometry width="30" height="30" as="geometry">
            <mxRectangle width="30" height="30" as="alternateBounds" />
          </mxGeometry>
        </mxCell>
        <mxCell id="fLA8LU66fRKPIO0S5Qcv-72" value="`sales_order_id` char(36) NOT NULL" style="shape=partialRectangle;overflow=hidden;connectable=0;fillColor=none;align=left;strokeColor=inherit;top=0;left=0;bottom=0;right=0;spacingLeft=6;fontSize=18;" vertex="1" parent="fLA8LU66fRKPIO0S5Qcv-70">
          <mxGeometry x="30" width="490" height="30" as="geometry">
            <mxRectangle width="490" height="30" as="alternateBounds" />
          </mxGeometry>
        </mxCell>
        <mxCell id="fLA8LU66fRKPIO0S5Qcv-73" value="" style="shape=tableRow;horizontal=0;startSize=0;swimlaneHead=0;swimlaneBody=0;fillColor=none;collapsible=0;dropTarget=0;points=[[0,0.5],[1,0.5]];portConstraint=eastwest;strokeColor=inherit;top=0;left=0;right=0;bottom=0;fontSize=18;" vertex="1" parent="fLA8LU66fRKPIO0S5Qcv-63">
          <mxGeometry y="120" width="520" height="30" as="geometry" />
        </mxCell>
        <mxCell id="fLA8LU66fRKPIO0S5Qcv-74" value="" style="shape=partialRectangle;overflow=hidden;connectable=0;fillColor=none;strokeColor=inherit;top=0;left=0;bottom=0;right=0;fontSize=18;" vertex="1" parent="fLA8LU66fRKPIO0S5Qcv-73">
          <mxGeometry width="30" height="30" as="geometry">
            <mxRectangle width="30" height="30" as="alternateBounds" />
          </mxGeometry>
        </mxCell>
        <mxCell id="fLA8LU66fRKPIO0S5Qcv-75" value="`biteship_order_id` varchar(191) DEFAULT NULL" style="shape=partialRectangle;overflow=hidden;connectable=0;fillColor=none;align=left;strokeColor=inherit;top=0;left=0;bottom=0;right=0;spacingLeft=6;fontSize=18;" vertex="1" parent="fLA8LU66fRKPIO0S5Qcv-73">
          <mxGeometry x="30" width="490" height="30" as="geometry">
            <mxRectangle width="490" height="30" as="alternateBounds" />
          </mxGeometry>
        </mxCell>
        <mxCell id="fLA8LU66fRKPIO0S5Qcv-76" value="" style="shape=tableRow;horizontal=0;startSize=0;swimlaneHead=0;swimlaneBody=0;fillColor=none;collapsible=0;dropTarget=0;points=[[0,0.5],[1,0.5]];portConstraint=eastwest;strokeColor=inherit;top=0;left=0;right=0;bottom=0;fontSize=18;" vertex="1" parent="fLA8LU66fRKPIO0S5Qcv-63">
          <mxGeometry y="150" width="520" height="30" as="geometry" />
        </mxCell>
        <mxCell id="fLA8LU66fRKPIO0S5Qcv-77" value="" style="shape=partialRectangle;overflow=hidden;connectable=0;fillColor=none;strokeColor=inherit;top=0;left=0;bottom=0;right=0;fontSize=18;" vertex="1" parent="fLA8LU66fRKPIO0S5Qcv-76">
          <mxGeometry width="30" height="30" as="geometry">
            <mxRectangle width="30" height="30" as="alternateBounds" />
          </mxGeometry>
        </mxCell>
        <mxCell id="fLA8LU66fRKPIO0S5Qcv-78" value="`sales_delivery_id` bigint(20) unsigned NOT NULL" style="shape=partialRectangle;overflow=hidden;connectable=0;fillColor=none;align=left;strokeColor=inherit;top=0;left=0;bottom=0;right=0;spacingLeft=6;fontSize=18;" vertex="1" parent="fLA8LU66fRKPIO0S5Qcv-76">
          <mxGeometry x="30" width="490" height="30" as="geometry">
            <mxRectangle width="490" height="30" as="alternateBounds" />
          </mxGeometry>
        </mxCell>
        <mxCell id="fLA8LU66fRKPIO0S5Qcv-79" value="" style="shape=tableRow;horizontal=0;startSize=0;swimlaneHead=0;swimlaneBody=0;fillColor=none;collapsible=0;dropTarget=0;points=[[0,0.5],[1,0.5]];portConstraint=eastwest;strokeColor=inherit;top=0;left=0;right=0;bottom=0;fontSize=18;" vertex="1" parent="fLA8LU66fRKPIO0S5Qcv-63">
          <mxGeometry y="180" width="520" height="30" as="geometry" />
        </mxCell>
        <mxCell id="fLA8LU66fRKPIO0S5Qcv-80" value="" style="shape=partialRectangle;overflow=hidden;connectable=0;fillColor=none;strokeColor=inherit;top=0;left=0;bottom=0;right=0;fontSize=18;" vertex="1" parent="fLA8LU66fRKPIO0S5Qcv-79">
          <mxGeometry width="30" height="30" as="geometry">
            <mxRectangle width="30" height="30" as="alternateBounds" />
          </mxGeometry>
        </mxCell>
        <mxCell id="fLA8LU66fRKPIO0S5Qcv-81" value="`tracking_id` varchar(191) DEFAULT NULL" style="shape=partialRectangle;overflow=hidden;connectable=0;fillColor=none;align=left;strokeColor=inherit;top=0;left=0;bottom=0;right=0;spacingLeft=6;fontSize=18;" vertex="1" parent="fLA8LU66fRKPIO0S5Qcv-79">
          <mxGeometry x="30" width="490" height="30" as="geometry">
            <mxRectangle width="490" height="30" as="alternateBounds" />
          </mxGeometry>
        </mxCell>
        <mxCell id="fLA8LU66fRKPIO0S5Qcv-82" value="" style="shape=tableRow;horizontal=0;startSize=0;swimlaneHead=0;swimlaneBody=0;fillColor=none;collapsible=0;dropTarget=0;points=[[0,0.5],[1,0.5]];portConstraint=eastwest;strokeColor=inherit;top=0;left=0;right=0;bottom=0;fontSize=18;" vertex="1" parent="fLA8LU66fRKPIO0S5Qcv-63">
          <mxGeometry y="210" width="520" height="30" as="geometry" />
        </mxCell>
        <mxCell id="fLA8LU66fRKPIO0S5Qcv-83" value="" style="shape=partialRectangle;overflow=hidden;connectable=0;fillColor=none;strokeColor=inherit;top=0;left=0;bottom=0;right=0;fontSize=18;" vertex="1" parent="fLA8LU66fRKPIO0S5Qcv-82">
          <mxGeometry width="30" height="30" as="geometry">
            <mxRectangle width="30" height="30" as="alternateBounds" />
          </mxGeometry>
        </mxCell>
        <mxCell id="fLA8LU66fRKPIO0S5Qcv-84" value="`waybill_id` varchar(191) DEFAULT NULL" style="shape=partialRectangle;overflow=hidden;connectable=0;fillColor=none;align=left;strokeColor=inherit;top=0;left=0;bottom=0;right=0;spacingLeft=6;fontSize=18;" vertex="1" parent="fLA8LU66fRKPIO0S5Qcv-82">
          <mxGeometry x="30" width="490" height="30" as="geometry">
            <mxRectangle width="490" height="30" as="alternateBounds" />
          </mxGeometry>
        </mxCell>
        <mxCell id="fLA8LU66fRKPIO0S5Qcv-85" value="" style="shape=tableRow;horizontal=0;startSize=0;swimlaneHead=0;swimlaneBody=0;fillColor=none;collapsible=0;dropTarget=0;points=[[0,0.5],[1,0.5]];portConstraint=eastwest;strokeColor=inherit;top=0;left=0;right=0;bottom=0;fontSize=18;" vertex="1" parent="fLA8LU66fRKPIO0S5Qcv-63">
          <mxGeometry y="240" width="520" height="30" as="geometry" />
        </mxCell>
        <mxCell id="fLA8LU66fRKPIO0S5Qcv-86" value="" style="shape=partialRectangle;overflow=hidden;connectable=0;fillColor=none;strokeColor=inherit;top=0;left=0;bottom=0;right=0;fontSize=18;" vertex="1" parent="fLA8LU66fRKPIO0S5Qcv-85">
          <mxGeometry width="30" height="30" as="geometry">
            <mxRectangle width="30" height="30" as="alternateBounds" />
          </mxGeometry>
        </mxCell>
        <mxCell id="fLA8LU66fRKPIO0S5Qcv-87" value="`created_at` timestamp NULL DEFAULT NULL" style="shape=partialRectangle;overflow=hidden;connectable=0;fillColor=none;align=left;strokeColor=inherit;top=0;left=0;bottom=0;right=0;spacingLeft=6;fontSize=18;" vertex="1" parent="fLA8LU66fRKPIO0S5Qcv-85">
          <mxGeometry x="30" width="490" height="30" as="geometry">
            <mxRectangle width="490" height="30" as="alternateBounds" />
          </mxGeometry>
        </mxCell>
        <mxCell id="fLA8LU66fRKPIO0S5Qcv-88" value="" style="shape=tableRow;horizontal=0;startSize=0;swimlaneHead=0;swimlaneBody=0;fillColor=none;collapsible=0;dropTarget=0;points=[[0,0.5],[1,0.5]];portConstraint=eastwest;strokeColor=inherit;top=0;left=0;right=0;bottom=0;fontSize=18;" vertex="1" parent="fLA8LU66fRKPIO0S5Qcv-63">
          <mxGeometry y="270" width="520" height="30" as="geometry" />
        </mxCell>
        <mxCell id="fLA8LU66fRKPIO0S5Qcv-89" value="" style="shape=partialRectangle;overflow=hidden;connectable=0;fillColor=none;strokeColor=inherit;top=0;left=0;bottom=0;right=0;fontSize=18;" vertex="1" parent="fLA8LU66fRKPIO0S5Qcv-88">
          <mxGeometry width="30" height="30" as="geometry">
            <mxRectangle width="30" height="30" as="alternateBounds" />
          </mxGeometry>
        </mxCell>
        <mxCell id="fLA8LU66fRKPIO0S5Qcv-90" value="`updated_at` timestamp NULL DEFAULT NULL" style="shape=partialRectangle;overflow=hidden;connectable=0;fillColor=none;align=left;strokeColor=inherit;top=0;left=0;bottom=0;right=0;spacingLeft=6;fontSize=18;" vertex="1" parent="fLA8LU66fRKPIO0S5Qcv-88">
          <mxGeometry x="30" width="490" height="30" as="geometry">
            <mxRectangle width="490" height="30" as="alternateBounds" />
          </mxGeometry>
        </mxCell>
        <mxCell id="fLA8LU66fRKPIO0S5Qcv-91" value="`sales_deliveries`" style="shape=table;startSize=30;container=1;collapsible=1;childLayout=tableLayout;fixedRows=1;rowLines=0;fontStyle=1;align=center;resizeLast=1;fontSize=18;" vertex="1" parent="1">
          <mxGeometry x="630" y="60" width="320" height="270" as="geometry" />
        </mxCell>
        <mxCell id="fLA8LU66fRKPIO0S5Qcv-92" value="" style="shape=tableRow;horizontal=0;startSize=0;swimlaneHead=0;swimlaneBody=0;fillColor=none;collapsible=0;dropTarget=0;points=[[0,0.5],[1,0.5]];portConstraint=eastwest;strokeColor=inherit;top=0;left=0;right=0;bottom=1;fontSize=18;" vertex="1" parent="fLA8LU66fRKPIO0S5Qcv-91">
          <mxGeometry y="30" width="320" height="30" as="geometry" />
        </mxCell>
        <mxCell id="fLA8LU66fRKPIO0S5Qcv-93" value="PK" style="shape=partialRectangle;overflow=hidden;connectable=0;fillColor=none;strokeColor=inherit;top=0;left=0;bottom=0;right=0;fontStyle=1;fontSize=18;" vertex="1" parent="fLA8LU66fRKPIO0S5Qcv-92">
          <mxGeometry width="30" height="30" as="geometry">
            <mxRectangle width="30" height="30" as="alternateBounds" />
          </mxGeometry>
        </mxCell>
        <mxCell id="fLA8LU66fRKPIO0S5Qcv-94" value="`id` bigint(20) unsigned NOT NULL AUTO_INCREMENT" style="shape=partialRectangle;overflow=hidden;connectable=0;fillColor=none;align=left;strokeColor=inherit;top=0;left=0;bottom=0;right=0;spacingLeft=6;fontStyle=5;fontSize=18;" vertex="1" parent="fLA8LU66fRKPIO0S5Qcv-92">
          <mxGeometry x="30" width="290" height="30" as="geometry">
            <mxRectangle width="290" height="30" as="alternateBounds" />
          </mxGeometry>
        </mxCell>
        <mxCell id="fLA8LU66fRKPIO0S5Qcv-95" value="" style="shape=tableRow;horizontal=0;startSize=0;swimlaneHead=0;swimlaneBody=0;fillColor=none;collapsible=0;dropTarget=0;points=[[0,0.5],[1,0.5]];portConstraint=eastwest;strokeColor=inherit;top=0;left=0;right=0;bottom=0;fontSize=18;" vertex="1" parent="fLA8LU66fRKPIO0S5Qcv-91">
          <mxGeometry y="60" width="320" height="30" as="geometry" />
        </mxCell>
        <mxCell id="fLA8LU66fRKPIO0S5Qcv-96" value="" style="shape=partialRectangle;overflow=hidden;connectable=0;fillColor=none;strokeColor=inherit;top=0;left=0;bottom=0;right=0;fontSize=18;" vertex="1" parent="fLA8LU66fRKPIO0S5Qcv-95">
          <mxGeometry width="30" height="30" as="geometry">
            <mxRectangle width="30" height="30" as="alternateBounds" />
          </mxGeometry>
        </mxCell>
        <mxCell id="fLA8LU66fRKPIO0S5Qcv-97" value="`biteship_order_id` varchar(191) DEFAULT NULL" style="shape=partialRectangle;overflow=hidden;connectable=0;fillColor=none;align=left;strokeColor=inherit;top=0;left=0;bottom=0;right=0;spacingLeft=6;fontSize=18;" vertex="1" parent="fLA8LU66fRKPIO0S5Qcv-95">
          <mxGeometry x="30" width="290" height="30" as="geometry">
            <mxRectangle width="290" height="30" as="alternateBounds" />
          </mxGeometry>
        </mxCell>
        <mxCell id="fLA8LU66fRKPIO0S5Qcv-98" value="" style="shape=tableRow;horizontal=0;startSize=0;swimlaneHead=0;swimlaneBody=0;fillColor=none;collapsible=0;dropTarget=0;points=[[0,0.5],[1,0.5]];portConstraint=eastwest;strokeColor=inherit;top=0;left=0;right=0;bottom=0;fontSize=18;" vertex="1" parent="fLA8LU66fRKPIO0S5Qcv-91">
          <mxGeometry y="90" width="320" height="30" as="geometry" />
        </mxCell>
        <mxCell id="fLA8LU66fRKPIO0S5Qcv-99" value="" style="shape=partialRectangle;overflow=hidden;connectable=0;fillColor=none;strokeColor=inherit;top=0;left=0;bottom=0;right=0;fontSize=18;" vertex="1" parent="fLA8LU66fRKPIO0S5Qcv-98">
          <mxGeometry width="30" height="30" as="geometry">
            <mxRectangle width="30" height="30" as="alternateBounds" />
          </mxGeometry>
        </mxCell>
        <mxCell id="fLA8LU66fRKPIO0S5Qcv-100" value="`sales_order_id` char(36) NOT NULL" style="shape=partialRectangle;overflow=hidden;connectable=0;fillColor=none;align=left;strokeColor=inherit;top=0;left=0;bottom=0;right=0;spacingLeft=6;fontSize=18;" vertex="1" parent="fLA8LU66fRKPIO0S5Qcv-98">
          <mxGeometry x="30" width="290" height="30" as="geometry">
            <mxRectangle width="290" height="30" as="alternateBounds" />
          </mxGeometry>
        </mxCell>
        <mxCell id="fLA8LU66fRKPIO0S5Qcv-101" value="" style="shape=tableRow;horizontal=0;startSize=0;swimlaneHead=0;swimlaneBody=0;fillColor=none;collapsible=0;dropTarget=0;points=[[0,0.5],[1,0.5]];portConstraint=eastwest;strokeColor=inherit;top=0;left=0;right=0;bottom=0;fontSize=18;" vertex="1" parent="fLA8LU66fRKPIO0S5Qcv-91">
          <mxGeometry y="120" width="320" height="30" as="geometry" />
        </mxCell>
        <mxCell id="fLA8LU66fRKPIO0S5Qcv-102" value="" style="shape=partialRectangle;overflow=hidden;connectable=0;fillColor=none;strokeColor=inherit;top=0;left=0;bottom=0;right=0;fontSize=18;" vertex="1" parent="fLA8LU66fRKPIO0S5Qcv-101">
          <mxGeometry width="30" height="30" as="geometry">
            <mxRectangle width="30" height="30" as="alternateBounds" />
          </mxGeometry>
        </mxCell>
        <mxCell id="fLA8LU66fRKPIO0S5Qcv-103" value="`tracking_id` varchar(191) DEFAULT NULL" style="shape=partialRectangle;overflow=hidden;connectable=0;fillColor=none;align=left;strokeColor=inherit;top=0;left=0;bottom=0;right=0;spacingLeft=6;fontSize=18;" vertex="1" parent="fLA8LU66fRKPIO0S5Qcv-101">
          <mxGeometry x="30" width="290" height="30" as="geometry">
            <mxRectangle width="290" height="30" as="alternateBounds" />
          </mxGeometry>
        </mxCell>
        <mxCell id="fLA8LU66fRKPIO0S5Qcv-104" value="" style="shape=tableRow;horizontal=0;startSize=0;swimlaneHead=0;swimlaneBody=0;fillColor=none;collapsible=0;dropTarget=0;points=[[0,0.5],[1,0.5]];portConstraint=eastwest;strokeColor=inherit;top=0;left=0;right=0;bottom=0;fontSize=18;" vertex="1" parent="fLA8LU66fRKPIO0S5Qcv-91">
          <mxGeometry y="150" width="320" height="30" as="geometry" />
        </mxCell>
        <mxCell id="fLA8LU66fRKPIO0S5Qcv-105" value="" style="shape=partialRectangle;overflow=hidden;connectable=0;fillColor=none;strokeColor=inherit;top=0;left=0;bottom=0;right=0;fontSize=18;" vertex="1" parent="fLA8LU66fRKPIO0S5Qcv-104">
          <mxGeometry width="30" height="30" as="geometry">
            <mxRectangle width="30" height="30" as="alternateBounds" />
          </mxGeometry>
        </mxCell>
        <mxCell id="fLA8LU66fRKPIO0S5Qcv-106" value="`waybill_id` varchar(191) DEFAULT NULL" style="shape=partialRectangle;overflow=hidden;connectable=0;fillColor=none;align=left;strokeColor=inherit;top=0;left=0;bottom=0;right=0;spacingLeft=6;fontSize=18;" vertex="1" parent="fLA8LU66fRKPIO0S5Qcv-104">
          <mxGeometry x="30" width="290" height="30" as="geometry">
            <mxRectangle width="290" height="30" as="alternateBounds" />
          </mxGeometry>
        </mxCell>
        <mxCell id="fLA8LU66fRKPIO0S5Qcv-107" value="" style="shape=tableRow;horizontal=0;startSize=0;swimlaneHead=0;swimlaneBody=0;fillColor=none;collapsible=0;dropTarget=0;points=[[0,0.5],[1,0.5]];portConstraint=eastwest;strokeColor=inherit;top=0;left=0;right=0;bottom=0;fontSize=18;" vertex="1" parent="fLA8LU66fRKPIO0S5Qcv-91">
          <mxGeometry y="180" width="320" height="30" as="geometry" />
        </mxCell>
        <mxCell id="fLA8LU66fRKPIO0S5Qcv-108" value="" style="shape=partialRectangle;overflow=hidden;connectable=0;fillColor=none;strokeColor=inherit;top=0;left=0;bottom=0;right=0;fontSize=18;" vertex="1" parent="fLA8LU66fRKPIO0S5Qcv-107">
          <mxGeometry width="30" height="30" as="geometry">
            <mxRectangle width="30" height="30" as="alternateBounds" />
          </mxGeometry>
        </mxCell>
        <mxCell id="fLA8LU66fRKPIO0S5Qcv-109" value="`company` varchar(191) DEFAULT NULL" style="shape=partialRectangle;overflow=hidden;connectable=0;fillColor=none;align=left;strokeColor=inherit;top=0;left=0;bottom=0;right=0;spacingLeft=6;fontSize=18;" vertex="1" parent="fLA8LU66fRKPIO0S5Qcv-107">
          <mxGeometry x="30" width="290" height="30" as="geometry">
            <mxRectangle width="290" height="30" as="alternateBounds" />
          </mxGeometry>
        </mxCell>
        <mxCell id="fLA8LU66fRKPIO0S5Qcv-110" value="" style="shape=tableRow;horizontal=0;startSize=0;swimlaneHead=0;swimlaneBody=0;fillColor=none;collapsible=0;dropTarget=0;points=[[0,0.5],[1,0.5]];portConstraint=eastwest;strokeColor=inherit;top=0;left=0;right=0;bottom=0;fontSize=18;" vertex="1" parent="fLA8LU66fRKPIO0S5Qcv-91">
          <mxGeometry y="210" width="320" height="30" as="geometry" />
        </mxCell>
        <mxCell id="fLA8LU66fRKPIO0S5Qcv-111" value="" style="shape=partialRectangle;overflow=hidden;connectable=0;fillColor=none;strokeColor=inherit;top=0;left=0;bottom=0;right=0;fontSize=18;" vertex="1" parent="fLA8LU66fRKPIO0S5Qcv-110">
          <mxGeometry width="30" height="30" as="geometry">
            <mxRectangle width="30" height="30" as="alternateBounds" />
          </mxGeometry>
        </mxCell>
        <mxCell id="fLA8LU66fRKPIO0S5Qcv-112" value="`created_at` timestamp NULL DEFAULT NULL" style="shape=partialRectangle;overflow=hidden;connectable=0;fillColor=none;align=left;strokeColor=inherit;top=0;left=0;bottom=0;right=0;spacingLeft=6;fontSize=18;" vertex="1" parent="fLA8LU66fRKPIO0S5Qcv-110">
          <mxGeometry x="30" width="290" height="30" as="geometry">
            <mxRectangle width="290" height="30" as="alternateBounds" />
          </mxGeometry>
        </mxCell>
        <mxCell id="fLA8LU66fRKPIO0S5Qcv-113" value="" style="shape=tableRow;horizontal=0;startSize=0;swimlaneHead=0;swimlaneBody=0;fillColor=none;collapsible=0;dropTarget=0;points=[[0,0.5],[1,0.5]];portConstraint=eastwest;strokeColor=inherit;top=0;left=0;right=0;bottom=0;fontSize=18;" vertex="1" parent="fLA8LU66fRKPIO0S5Qcv-91">
          <mxGeometry y="240" width="320" height="30" as="geometry" />
        </mxCell>
        <mxCell id="fLA8LU66fRKPIO0S5Qcv-114" value="" style="shape=partialRectangle;overflow=hidden;connectable=0;fillColor=none;strokeColor=inherit;top=0;left=0;bottom=0;right=0;fontSize=18;" vertex="1" parent="fLA8LU66fRKPIO0S5Qcv-113">
          <mxGeometry width="30" height="30" as="geometry">
            <mxRectangle width="30" height="30" as="alternateBounds" />
          </mxGeometry>
        </mxCell>
        <mxCell id="fLA8LU66fRKPIO0S5Qcv-115" value="`updated_at` timestamp NULL DEFAULT NULL" style="shape=partialRectangle;overflow=hidden;connectable=0;fillColor=none;align=left;strokeColor=inherit;top=0;left=0;bottom=0;right=0;spacingLeft=6;fontSize=18;" vertex="1" parent="fLA8LU66fRKPIO0S5Qcv-113">
          <mxGeometry x="30" width="290" height="30" as="geometry">
            <mxRectangle width="290" height="30" as="alternateBounds" />
          </mxGeometry>
        </mxCell>
        <mxCell id="fLA8LU66fRKPIO0S5Qcv-116" value="`sales_orders`" style="shape=table;startSize=30;container=1;collapsible=1;childLayout=tableLayout;fixedRows=1;rowLines=0;fontStyle=1;align=center;resizeLast=1;fontSize=18;" vertex="1" parent="1">
          <mxGeometry x="1100" y="530" width="310" height="450" as="geometry" />
        </mxCell>
        <mxCell id="fLA8LU66fRKPIO0S5Qcv-117" value="" style="shape=tableRow;horizontal=0;startSize=0;swimlaneHead=0;swimlaneBody=0;fillColor=none;collapsible=0;dropTarget=0;points=[[0,0.5],[1,0.5]];portConstraint=eastwest;strokeColor=inherit;top=0;left=0;right=0;bottom=1;fontSize=18;" vertex="1" parent="fLA8LU66fRKPIO0S5Qcv-116">
          <mxGeometry y="30" width="310" height="30" as="geometry" />
        </mxCell>
        <mxCell id="fLA8LU66fRKPIO0S5Qcv-118" value="PK" style="shape=partialRectangle;overflow=hidden;connectable=0;fillColor=none;strokeColor=inherit;top=0;left=0;bottom=0;right=0;fontStyle=1;fontSize=18;" vertex="1" parent="fLA8LU66fRKPIO0S5Qcv-117">
          <mxGeometry width="30" height="30" as="geometry">
            <mxRectangle width="30" height="30" as="alternateBounds" />
          </mxGeometry>
        </mxCell>
        <mxCell id="fLA8LU66fRKPIO0S5Qcv-119" value="`id` char(36) NOT NULL" style="shape=partialRectangle;overflow=hidden;connectable=0;fillColor=none;align=left;strokeColor=inherit;top=0;left=0;bottom=0;right=0;spacingLeft=6;fontStyle=5;fontSize=18;" vertex="1" parent="fLA8LU66fRKPIO0S5Qcv-117">
          <mxGeometry x="30" width="280" height="30" as="geometry">
            <mxRectangle width="280" height="30" as="alternateBounds" />
          </mxGeometry>
        </mxCell>
        <mxCell id="fLA8LU66fRKPIO0S5Qcv-120" value="" style="shape=tableRow;horizontal=0;startSize=0;swimlaneHead=0;swimlaneBody=0;fillColor=none;collapsible=0;dropTarget=0;points=[[0,0.5],[1,0.5]];portConstraint=eastwest;strokeColor=inherit;top=0;left=0;right=0;bottom=0;fontSize=18;" vertex="1" parent="fLA8LU66fRKPIO0S5Qcv-116">
          <mxGeometry y="60" width="310" height="30" as="geometry" />
        </mxCell>
        <mxCell id="fLA8LU66fRKPIO0S5Qcv-121" value="" style="shape=partialRectangle;overflow=hidden;connectable=0;fillColor=none;strokeColor=inherit;top=0;left=0;bottom=0;right=0;fontSize=18;" vertex="1" parent="fLA8LU66fRKPIO0S5Qcv-120">
          <mxGeometry width="30" height="30" as="geometry">
            <mxRectangle width="30" height="30" as="alternateBounds" />
          </mxGeometry>
        </mxCell>
        <mxCell id="fLA8LU66fRKPIO0S5Qcv-122" value="`company_id` bigint(20) unsigned NOT NULL" style="shape=partialRectangle;overflow=hidden;connectable=0;fillColor=none;align=left;strokeColor=inherit;top=0;left=0;bottom=0;right=0;spacingLeft=6;fontSize=18;" vertex="1" parent="fLA8LU66fRKPIO0S5Qcv-120">
          <mxGeometry x="30" width="280" height="30" as="geometry">
            <mxRectangle width="280" height="30" as="alternateBounds" />
          </mxGeometry>
        </mxCell>
        <mxCell id="fLA8LU66fRKPIO0S5Qcv-123" value="" style="shape=tableRow;horizontal=0;startSize=0;swimlaneHead=0;swimlaneBody=0;fillColor=none;collapsible=0;dropTarget=0;points=[[0,0.5],[1,0.5]];portConstraint=eastwest;strokeColor=inherit;top=0;left=0;right=0;bottom=0;fontSize=18;" vertex="1" parent="fLA8LU66fRKPIO0S5Qcv-116">
          <mxGeometry y="90" width="310" height="30" as="geometry" />
        </mxCell>
        <mxCell id="fLA8LU66fRKPIO0S5Qcv-124" value="" style="shape=partialRectangle;overflow=hidden;connectable=0;fillColor=none;strokeColor=inherit;top=0;left=0;bottom=0;right=0;fontSize=18;" vertex="1" parent="fLA8LU66fRKPIO0S5Qcv-123">
          <mxGeometry width="30" height="30" as="geometry">
            <mxRectangle width="30" height="30" as="alternateBounds" />
          </mxGeometry>
        </mxCell>
        <mxCell id="fLA8LU66fRKPIO0S5Qcv-125" value="`customer_id` bigint(20) unsigned NOT NULL" style="shape=partialRectangle;overflow=hidden;connectable=0;fillColor=none;align=left;strokeColor=inherit;top=0;left=0;bottom=0;right=0;spacingLeft=6;fontSize=18;" vertex="1" parent="fLA8LU66fRKPIO0S5Qcv-123">
          <mxGeometry x="30" width="280" height="30" as="geometry">
            <mxRectangle width="280" height="30" as="alternateBounds" />
          </mxGeometry>
        </mxCell>
        <mxCell id="fLA8LU66fRKPIO0S5Qcv-126" value="" style="shape=tableRow;horizontal=0;startSize=0;swimlaneHead=0;swimlaneBody=0;fillColor=none;collapsible=0;dropTarget=0;points=[[0,0.5],[1,0.5]];portConstraint=eastwest;strokeColor=inherit;top=0;left=0;right=0;bottom=0;fontSize=18;" vertex="1" parent="fLA8LU66fRKPIO0S5Qcv-116">
          <mxGeometry y="120" width="310" height="30" as="geometry" />
        </mxCell>
        <mxCell id="fLA8LU66fRKPIO0S5Qcv-127" value="" style="shape=partialRectangle;overflow=hidden;connectable=0;fillColor=none;strokeColor=inherit;top=0;left=0;bottom=0;right=0;fontSize=18;" vertex="1" parent="fLA8LU66fRKPIO0S5Qcv-126">
          <mxGeometry width="30" height="30" as="geometry">
            <mxRectangle width="30" height="30" as="alternateBounds" />
          </mxGeometry>
        </mxCell>
        <mxCell id="fLA8LU66fRKPIO0S5Qcv-128" value="`status` varchar(191) NOT NULL DEFAULT &#39;0&#39;" style="shape=partialRectangle;overflow=hidden;connectable=0;fillColor=none;align=left;strokeColor=inherit;top=0;left=0;bottom=0;right=0;spacingLeft=6;fontSize=18;" vertex="1" parent="fLA8LU66fRKPIO0S5Qcv-126">
          <mxGeometry x="30" width="280" height="30" as="geometry">
            <mxRectangle width="280" height="30" as="alternateBounds" />
          </mxGeometry>
        </mxCell>
        <mxCell id="fLA8LU66fRKPIO0S5Qcv-129" value="" style="shape=tableRow;horizontal=0;startSize=0;swimlaneHead=0;swimlaneBody=0;fillColor=none;collapsible=0;dropTarget=0;points=[[0,0.5],[1,0.5]];portConstraint=eastwest;strokeColor=inherit;top=0;left=0;right=0;bottom=0;fontSize=18;" vertex="1" parent="fLA8LU66fRKPIO0S5Qcv-116">
          <mxGeometry y="150" width="310" height="30" as="geometry" />
        </mxCell>
        <mxCell id="fLA8LU66fRKPIO0S5Qcv-130" value="" style="shape=partialRectangle;overflow=hidden;connectable=0;fillColor=none;strokeColor=inherit;top=0;left=0;bottom=0;right=0;fontSize=18;" vertex="1" parent="fLA8LU66fRKPIO0S5Qcv-129">
          <mxGeometry width="30" height="30" as="geometry">
            <mxRectangle width="30" height="30" as="alternateBounds" />
          </mxGeometry>
        </mxCell>
        <mxCell id="fLA8LU66fRKPIO0S5Qcv-131" value="`total` int(11) NOT NULL DEFAULT 0" style="shape=partialRectangle;overflow=hidden;connectable=0;fillColor=none;align=left;strokeColor=inherit;top=0;left=0;bottom=0;right=0;spacingLeft=6;fontSize=18;" vertex="1" parent="fLA8LU66fRKPIO0S5Qcv-129">
          <mxGeometry x="30" width="280" height="30" as="geometry">
            <mxRectangle width="280" height="30" as="alternateBounds" />
          </mxGeometry>
        </mxCell>
        <mxCell id="fLA8LU66fRKPIO0S5Qcv-132" value="" style="shape=tableRow;horizontal=0;startSize=0;swimlaneHead=0;swimlaneBody=0;fillColor=none;collapsible=0;dropTarget=0;points=[[0,0.5],[1,0.5]];portConstraint=eastwest;strokeColor=inherit;top=0;left=0;right=0;bottom=0;fontSize=18;" vertex="1" parent="fLA8LU66fRKPIO0S5Qcv-116">
          <mxGeometry y="180" width="310" height="30" as="geometry" />
        </mxCell>
        <mxCell id="fLA8LU66fRKPIO0S5Qcv-133" value="" style="shape=partialRectangle;overflow=hidden;connectable=0;fillColor=none;strokeColor=inherit;top=0;left=0;bottom=0;right=0;fontSize=18;" vertex="1" parent="fLA8LU66fRKPIO0S5Qcv-132">
          <mxGeometry width="30" height="30" as="geometry">
            <mxRectangle width="30" height="30" as="alternateBounds" />
          </mxGeometry>
        </mxCell>
        <mxCell id="fLA8LU66fRKPIO0S5Qcv-134" value="`grand_total` int(11) NOT NULL DEFAULT 0" style="shape=partialRectangle;overflow=hidden;connectable=0;fillColor=none;align=left;strokeColor=inherit;top=0;left=0;bottom=0;right=0;spacingLeft=6;fontSize=18;" vertex="1" parent="fLA8LU66fRKPIO0S5Qcv-132">
          <mxGeometry x="30" width="280" height="30" as="geometry">
            <mxRectangle width="280" height="30" as="alternateBounds" />
          </mxGeometry>
        </mxCell>
        <mxCell id="fLA8LU66fRKPIO0S5Qcv-135" value="" style="shape=tableRow;horizontal=0;startSize=0;swimlaneHead=0;swimlaneBody=0;fillColor=none;collapsible=0;dropTarget=0;points=[[0,0.5],[1,0.5]];portConstraint=eastwest;strokeColor=inherit;top=0;left=0;right=0;bottom=0;fontSize=18;" vertex="1" parent="fLA8LU66fRKPIO0S5Qcv-116">
          <mxGeometry y="210" width="310" height="30" as="geometry" />
        </mxCell>
        <mxCell id="fLA8LU66fRKPIO0S5Qcv-136" value="" style="shape=partialRectangle;overflow=hidden;connectable=0;fillColor=none;strokeColor=inherit;top=0;left=0;bottom=0;right=0;fontSize=18;" vertex="1" parent="fLA8LU66fRKPIO0S5Qcv-135">
          <mxGeometry width="30" height="30" as="geometry">
            <mxRectangle width="30" height="30" as="alternateBounds" />
          </mxGeometry>
        </mxCell>
        <mxCell id="fLA8LU66fRKPIO0S5Qcv-137" value="`delivery_price` int(11) NOT NULL" style="shape=partialRectangle;overflow=hidden;connectable=0;fillColor=none;align=left;strokeColor=inherit;top=0;left=0;bottom=0;right=0;spacingLeft=6;fontSize=18;" vertex="1" parent="fLA8LU66fRKPIO0S5Qcv-135">
          <mxGeometry x="30" width="280" height="30" as="geometry">
            <mxRectangle width="280" height="30" as="alternateBounds" />
          </mxGeometry>
        </mxCell>
        <mxCell id="fLA8LU66fRKPIO0S5Qcv-138" value="" style="shape=tableRow;horizontal=0;startSize=0;swimlaneHead=0;swimlaneBody=0;fillColor=none;collapsible=0;dropTarget=0;points=[[0,0.5],[1,0.5]];portConstraint=eastwest;strokeColor=inherit;top=0;left=0;right=0;bottom=0;fontSize=18;" vertex="1" parent="fLA8LU66fRKPIO0S5Qcv-116">
          <mxGeometry y="240" width="310" height="30" as="geometry" />
        </mxCell>
        <mxCell id="fLA8LU66fRKPIO0S5Qcv-139" value="" style="shape=partialRectangle;overflow=hidden;connectable=0;fillColor=none;strokeColor=inherit;top=0;left=0;bottom=0;right=0;fontSize=18;" vertex="1" parent="fLA8LU66fRKPIO0S5Qcv-138">
          <mxGeometry width="30" height="30" as="geometry">
            <mxRectangle width="30" height="30" as="alternateBounds" />
          </mxGeometry>
        </mxCell>
        <mxCell id="fLA8LU66fRKPIO0S5Qcv-140" value="`service_fee` int(11) NOT NULL DEFAULT 0" style="shape=partialRectangle;overflow=hidden;connectable=0;fillColor=none;align=left;strokeColor=inherit;top=0;left=0;bottom=0;right=0;spacingLeft=6;fontSize=18;" vertex="1" parent="fLA8LU66fRKPIO0S5Qcv-138">
          <mxGeometry x="30" width="280" height="30" as="geometry">
            <mxRectangle width="280" height="30" as="alternateBounds" />
          </mxGeometry>
        </mxCell>
        <mxCell id="fLA8LU66fRKPIO0S5Qcv-141" value="" style="shape=tableRow;horizontal=0;startSize=0;swimlaneHead=0;swimlaneBody=0;fillColor=none;collapsible=0;dropTarget=0;points=[[0,0.5],[1,0.5]];portConstraint=eastwest;strokeColor=inherit;top=0;left=0;right=0;bottom=0;fontSize=18;" vertex="1" parent="fLA8LU66fRKPIO0S5Qcv-116">
          <mxGeometry y="270" width="310" height="30" as="geometry" />
        </mxCell>
        <mxCell id="fLA8LU66fRKPIO0S5Qcv-142" value="" style="shape=partialRectangle;overflow=hidden;connectable=0;fillColor=none;strokeColor=inherit;top=0;left=0;bottom=0;right=0;fontSize=18;" vertex="1" parent="fLA8LU66fRKPIO0S5Qcv-141">
          <mxGeometry width="30" height="30" as="geometry">
            <mxRectangle width="30" height="30" as="alternateBounds" />
          </mxGeometry>
        </mxCell>
        <mxCell id="fLA8LU66fRKPIO0S5Qcv-143" value="`admin_fee` int(11) NOT NULL DEFAULT 0" style="shape=partialRectangle;overflow=hidden;connectable=0;fillColor=none;align=left;strokeColor=inherit;top=0;left=0;bottom=0;right=0;spacingLeft=6;fontSize=18;" vertex="1" parent="fLA8LU66fRKPIO0S5Qcv-141">
          <mxGeometry x="30" width="280" height="30" as="geometry">
            <mxRectangle width="280" height="30" as="alternateBounds" />
          </mxGeometry>
        </mxCell>
        <mxCell id="fLA8LU66fRKPIO0S5Qcv-144" value="" style="shape=tableRow;horizontal=0;startSize=0;swimlaneHead=0;swimlaneBody=0;fillColor=none;collapsible=0;dropTarget=0;points=[[0,0.5],[1,0.5]];portConstraint=eastwest;strokeColor=inherit;top=0;left=0;right=0;bottom=0;fontSize=18;" vertex="1" parent="fLA8LU66fRKPIO0S5Qcv-116">
          <mxGeometry y="300" width="310" height="30" as="geometry" />
        </mxCell>
        <mxCell id="fLA8LU66fRKPIO0S5Qcv-145" value="" style="shape=partialRectangle;overflow=hidden;connectable=0;fillColor=none;strokeColor=inherit;top=0;left=0;bottom=0;right=0;fontSize=18;" vertex="1" parent="fLA8LU66fRKPIO0S5Qcv-144">
          <mxGeometry width="30" height="30" as="geometry">
            <mxRectangle width="30" height="30" as="alternateBounds" />
          </mxGeometry>
        </mxCell>
        <mxCell id="fLA8LU66fRKPIO0S5Qcv-146" value="`order_note` longtext DEFAULT NULL" style="shape=partialRectangle;overflow=hidden;connectable=0;fillColor=none;align=left;strokeColor=inherit;top=0;left=0;bottom=0;right=0;spacingLeft=6;fontSize=18;" vertex="1" parent="fLA8LU66fRKPIO0S5Qcv-144">
          <mxGeometry x="30" width="280" height="30" as="geometry">
            <mxRectangle width="280" height="30" as="alternateBounds" />
          </mxGeometry>
        </mxCell>
        <mxCell id="fLA8LU66fRKPIO0S5Qcv-147" value="" style="shape=tableRow;horizontal=0;startSize=0;swimlaneHead=0;swimlaneBody=0;fillColor=none;collapsible=0;dropTarget=0;points=[[0,0.5],[1,0.5]];portConstraint=eastwest;strokeColor=inherit;top=0;left=0;right=0;bottom=0;fontSize=18;" vertex="1" parent="fLA8LU66fRKPIO0S5Qcv-116">
          <mxGeometry y="330" width="310" height="30" as="geometry" />
        </mxCell>
        <mxCell id="fLA8LU66fRKPIO0S5Qcv-148" value="" style="shape=partialRectangle;overflow=hidden;connectable=0;fillColor=none;strokeColor=inherit;top=0;left=0;bottom=0;right=0;fontSize=18;" vertex="1" parent="fLA8LU66fRKPIO0S5Qcv-147">
          <mxGeometry width="30" height="30" as="geometry">
            <mxRectangle width="30" height="30" as="alternateBounds" />
          </mxGeometry>
        </mxCell>
        <mxCell id="fLA8LU66fRKPIO0S5Qcv-149" value="`order_note_cancel` longtext DEFAULT NULL" style="shape=partialRectangle;overflow=hidden;connectable=0;fillColor=none;align=left;strokeColor=inherit;top=0;left=0;bottom=0;right=0;spacingLeft=6;fontSize=18;" vertex="1" parent="fLA8LU66fRKPIO0S5Qcv-147">
          <mxGeometry x="30" width="280" height="30" as="geometry">
            <mxRectangle width="280" height="30" as="alternateBounds" />
          </mxGeometry>
        </mxCell>
        <mxCell id="fLA8LU66fRKPIO0S5Qcv-150" value="" style="shape=tableRow;horizontal=0;startSize=0;swimlaneHead=0;swimlaneBody=0;fillColor=none;collapsible=0;dropTarget=0;points=[[0,0.5],[1,0.5]];portConstraint=eastwest;strokeColor=inherit;top=0;left=0;right=0;bottom=0;fontSize=18;" vertex="1" parent="fLA8LU66fRKPIO0S5Qcv-116">
          <mxGeometry y="360" width="310" height="30" as="geometry" />
        </mxCell>
        <mxCell id="fLA8LU66fRKPIO0S5Qcv-151" value="" style="shape=partialRectangle;overflow=hidden;connectable=0;fillColor=none;strokeColor=inherit;top=0;left=0;bottom=0;right=0;fontSize=18;" vertex="1" parent="fLA8LU66fRKPIO0S5Qcv-150">
          <mxGeometry width="30" height="30" as="geometry">
            <mxRectangle width="30" height="30" as="alternateBounds" />
          </mxGeometry>
        </mxCell>
        <mxCell id="fLA8LU66fRKPIO0S5Qcv-152" value="`proof_image` varchar(191) DEFAULT NULL" style="shape=partialRectangle;overflow=hidden;connectable=0;fillColor=none;align=left;strokeColor=inherit;top=0;left=0;bottom=0;right=0;spacingLeft=6;fontSize=18;" vertex="1" parent="fLA8LU66fRKPIO0S5Qcv-150">
          <mxGeometry x="30" width="280" height="30" as="geometry">
            <mxRectangle width="280" height="30" as="alternateBounds" />
          </mxGeometry>
        </mxCell>
        <mxCell id="fLA8LU66fRKPIO0S5Qcv-153" value="" style="shape=tableRow;horizontal=0;startSize=0;swimlaneHead=0;swimlaneBody=0;fillColor=none;collapsible=0;dropTarget=0;points=[[0,0.5],[1,0.5]];portConstraint=eastwest;strokeColor=inherit;top=0;left=0;right=0;bottom=0;fontSize=18;" vertex="1" parent="fLA8LU66fRKPIO0S5Qcv-116">
          <mxGeometry y="390" width="310" height="30" as="geometry" />
        </mxCell>
        <mxCell id="fLA8LU66fRKPIO0S5Qcv-154" value="" style="shape=partialRectangle;overflow=hidden;connectable=0;fillColor=none;strokeColor=inherit;top=0;left=0;bottom=0;right=0;fontSize=18;" vertex="1" parent="fLA8LU66fRKPIO0S5Qcv-153">
          <mxGeometry width="30" height="30" as="geometry">
            <mxRectangle width="30" height="30" as="alternateBounds" />
          </mxGeometry>
        </mxCell>
        <mxCell id="fLA8LU66fRKPIO0S5Qcv-155" value="`created_at` timestamp NULL DEFAULT NULL" style="shape=partialRectangle;overflow=hidden;connectable=0;fillColor=none;align=left;strokeColor=inherit;top=0;left=0;bottom=0;right=0;spacingLeft=6;fontSize=18;" vertex="1" parent="fLA8LU66fRKPIO0S5Qcv-153">
          <mxGeometry x="30" width="280" height="30" as="geometry">
            <mxRectangle width="280" height="30" as="alternateBounds" />
          </mxGeometry>
        </mxCell>
        <mxCell id="fLA8LU66fRKPIO0S5Qcv-156" value="" style="shape=tableRow;horizontal=0;startSize=0;swimlaneHead=0;swimlaneBody=0;fillColor=none;collapsible=0;dropTarget=0;points=[[0,0.5],[1,0.5]];portConstraint=eastwest;strokeColor=inherit;top=0;left=0;right=0;bottom=0;fontSize=18;" vertex="1" parent="fLA8LU66fRKPIO0S5Qcv-116">
          <mxGeometry y="420" width="310" height="30" as="geometry" />
        </mxCell>
        <mxCell id="fLA8LU66fRKPIO0S5Qcv-157" value="" style="shape=partialRectangle;overflow=hidden;connectable=0;fillColor=none;strokeColor=inherit;top=0;left=0;bottom=0;right=0;fontSize=18;" vertex="1" parent="fLA8LU66fRKPIO0S5Qcv-156">
          <mxGeometry width="30" height="30" as="geometry">
            <mxRectangle width="30" height="30" as="alternateBounds" />
          </mxGeometry>
        </mxCell>
        <mxCell id="fLA8LU66fRKPIO0S5Qcv-158" value="`updated_at` timestamp NULL DEFAULT NULL" style="shape=partialRectangle;overflow=hidden;connectable=0;fillColor=none;align=left;strokeColor=inherit;top=0;left=0;bottom=0;right=0;spacingLeft=6;fontSize=18;" vertex="1" parent="fLA8LU66fRKPIO0S5Qcv-156">
          <mxGeometry x="30" width="280" height="30" as="geometry">
            <mxRectangle width="280" height="30" as="alternateBounds" />
          </mxGeometry>
        </mxCell>
        <mxCell id="fLA8LU66fRKPIO0S5Qcv-159" value="" style="edgeStyle=entityRelationEdgeStyle;fontSize=12;html=1;endArrow=ERmandOne;startArrow=ERmandOne;rounded=0;exitX=1;exitY=0.5;exitDx=0;exitDy=0;entryX=0;entryY=0.5;entryDx=0;entryDy=0;" edge="1" parent="1" source="fLA8LU66fRKPIO0S5Qcv-17" target="fLA8LU66fRKPIO0S5Qcv-70">
          <mxGeometry width="100" height="100" relative="1" as="geometry">
            <mxPoint x="230" y="1680" as="sourcePoint" />
            <mxPoint x="330" y="1580" as="targetPoint" />
          </mxGeometry>
        </mxCell>
        <mxCell id="fLA8LU66fRKPIO0S5Qcv-160" value="&lt;font style=&quot;font-size: 21px;&quot;&gt;1 to 1&lt;/font&gt;" style="edgeLabel;html=1;align=center;verticalAlign=middle;resizable=0;points=[];" vertex="1" connectable="0" parent="fLA8LU66fRKPIO0S5Qcv-159">
          <mxGeometry x="-0.0929" y="-3" relative="1" as="geometry">
            <mxPoint x="-1" as="offset" />
          </mxGeometry>
        </mxCell>
        <mxCell id="fLA8LU66fRKPIO0S5Qcv-165" value="" style="edgeStyle=entityRelationEdgeStyle;fontSize=12;html=1;endArrow=ERmandOne;startArrow=ERmandOne;rounded=0;exitX=1;exitY=0.5;exitDx=0;exitDy=0;entryX=0;entryY=0.5;entryDx=0;entryDy=0;" edge="1" parent="1" source="fLA8LU66fRKPIO0S5Qcv-70" target="fLA8LU66fRKPIO0S5Qcv-135">
          <mxGeometry width="100" height="100" relative="1" as="geometry">
            <mxPoint x="800" y="720" as="sourcePoint" />
            <mxPoint x="1090" y="630" as="targetPoint" />
            <Array as="points">
              <mxPoint x="770" y="650" />
            </Array>
          </mxGeometry>
        </mxCell>
        <mxCell id="fLA8LU66fRKPIO0S5Qcv-166" value="&lt;font style=&quot;font-size: 21px;&quot;&gt;1 to 1&lt;/font&gt;" style="edgeLabel;html=1;align=center;verticalAlign=middle;resizable=0;points=[];" vertex="1" connectable="0" parent="fLA8LU66fRKPIO0S5Qcv-165">
          <mxGeometry x="-0.0929" y="-3" relative="1" as="geometry">
            <mxPoint x="-1" as="offset" />
          </mxGeometry>
        </mxCell>
        <mxCell id="fLA8LU66fRKPIO0S5Qcv-167" value="" style="fontSize=12;html=1;endArrow=ERmandOne;startArrow=ERmandOne;rounded=0;exitX=0.669;exitY=-0.007;exitDx=0;exitDy=0;entryX=0.546;entryY=1.039;entryDx=0;entryDy=0;exitPerimeter=0;entryPerimeter=0;" edge="1" parent="1" source="fLA8LU66fRKPIO0S5Qcv-63" target="fLA8LU66fRKPIO0S5Qcv-113">
          <mxGeometry width="100" height="100" relative="1" as="geometry">
            <mxPoint x="780" y="645" as="sourcePoint" />
            <mxPoint x="1110" y="765" as="targetPoint" />
          </mxGeometry>
        </mxCell>
        <mxCell id="fLA8LU66fRKPIO0S5Qcv-168" value="&lt;font style=&quot;font-size: 21px;&quot;&gt;1 to 1&lt;/font&gt;" style="edgeLabel;html=1;align=center;verticalAlign=middle;resizable=0;points=[];" vertex="1" connectable="0" parent="fLA8LU66fRKPIO0S5Qcv-167">
          <mxGeometry x="-0.0929" y="-3" relative="1" as="geometry">
            <mxPoint x="-1" as="offset" />
          </mxGeometry>
        </mxCell>
        <mxCell id="fLA8LU66fRKPIO0S5Qcv-169" value="" style="fontSize=12;html=1;endArrow=ERoneToMany;rounded=0;exitX=0.478;exitY=1.095;exitDx=0;exitDy=0;exitPerimeter=0;entryX=0.362;entryY=-0.013;entryDx=0;entryDy=0;entryPerimeter=0;" edge="1" parent="1" source="fLA8LU66fRKPIO0S5Qcv-60" target="fLA8LU66fRKPIO0S5Qcv-63">
          <mxGeometry width="100" height="100" relative="1" as="geometry">
            <mxPoint x="470" y="640" as="sourcePoint" />
            <mxPoint x="570" y="540" as="targetPoint" />
          </mxGeometry>
        </mxCell>
        <mxCell id="fLA8LU66fRKPIO0S5Qcv-170" value="&lt;font style=&quot;font-size: 21px;&quot;&gt;Many to 1&lt;/font&gt;" style="edgeLabel;html=1;align=center;verticalAlign=middle;resizable=0;points=[];" vertex="1" connectable="0" parent="fLA8LU66fRKPIO0S5Qcv-169">
          <mxGeometry x="-0.1048" y="-4" relative="1" as="geometry">
            <mxPoint as="offset" />
          </mxGeometry>
        </mxCell>
      </root>
    </mxGraphModel>
  </diagram>
</mxfile>
